<svg aria-hidden="true" style="position: absolute; width: 0; height: 0;" version="1.1"
    xmlns="http://www.w3.org/2000/svg" xmlns:xlink="http://www.w3.org/1999/xlink">
    <defs>
       
       <symbol id="icon-heart" viewBox="0 0 36 32">
            <path stroke-linejoin="round" stroke-linecap="round" stroke-miterlimit="4" stroke-width="3.3455"
                d="M31.040 5.251c-0.743-0.743-1.625-1.333-2.596-1.735s-2.011-0.609-3.062-0.609-2.091 0.207-3.062 0.609c-0.971 0.402-1.853 0.992-2.596 1.735l-1.542 1.542-1.542-1.542c-1.501-1.501-3.536-2.344-5.658-2.344s-4.158 0.843-5.658 2.344c-1.501 1.501-2.344 3.536-2.344 5.658s0.843 4.158 2.344 5.658l12.858 12.858 12.858-12.858c0.743-0.743 1.333-1.625 1.735-2.596s0.609-2.011 0.609-3.062-0.207-2.091-0.609-3.062c-0.402-0.971-0.992-1.853-1.735-2.596z">
            </path>
        </symbol>

        <symbol id="icon-close" viewBox="0 0 32 32">
            <path stroke-linejoin="round" stroke-linecap="round" stroke-miterlimit="16" stroke-width="3"
                d="M24 8l-16 16"></path>
            <path stroke-linejoin="round" stroke-linecap="round" stroke-miterlimit="16" stroke-width="3" d="M8 8l16 16">
            </path>
        </symbol>

<symbol id="icon-video" viewBox="0 0 512 512">
  <path 
    d="M256,0 C397.4,0 512,114.6 512,256 C512,397.4 397.4,512 256,512 C114.6,512 0,397.4 0,256 C0,114.6 114.6,0 256,0 Z" 
    fill="#f58457" 
  />
  <path 
    d="M490.6,342.5 C489.9,341.8 489.3,341.2 488.6,340.5 C451.6,303.5 414.5,266.5 377.5,229.5 C374.4,226.4 371.1,223.8 367.3,221.6 C352.7,212.9 338.1,204.1 323.5,195.3 C277.4,167.6 231.3,139.9 185.1,112.2 C176.2,106.8 166.7,104.9 156.4,106.8 C138.3,110.3 124.8,126.3 124.8,144.7 C124.8,218.9 124.8,293.2 124.8,367.4 C124.8,377.9 128.6,387 136,394.4 C172.7,431.2 209.5,467.9 246.2,504.7 C246.5,505 246.7,505.2 247,505.4 C249.8,505.5 252.6,505.6 255.4,505.6 C363.7,506 455.4,437.9 490.6,342.5 Z" 
    fill="#f0794a" 
  />
  <path 
    d="M163.9,406 C157.3,406 150.6,404.3 144.5,400.8 C132,393.7 124.6,381 124.6,366.6 L124.6,145.4 C124.6,131.1 132.1,118.3 144.5,111.2 C157,104.1 171.8,104.3 184.1,111.7 L368.4,222.3 C380.3,229.5 387.5,242.1 387.5,256 C387.5,269.9 380.3,282.5 368.4,289.7 L184.1,400.3 C177.8,404.1 170.8,406 163.9,406 Z M163.9,129.3 C161.2,129.3 158.5,130 156,131.4 C150.9,134.3 147.9,139.5 147.9,145.3 L147.9,366.6 C147.9,372.4 150.9,377.6 156,380.5 C161.1,383.4 167.1,383.3 172.1,380.3 L356.4,269.7 C361.3,266.7 364.2,261.7 364.2,256 C364.2,250.2 361.4,245.2 356.4,242.3 L172.1,131.6 C169.5,130.1 166.7,129.3 163.9,129.3 Z" 
    fill="#FFFFFF" 
  />
</symbol>

    </defs>
</svg>